<svg xmlns="http://www.w3.org/2000/svg" viewBox="0 0 3 2">
  <!-- Blue triangle (top half) -->
  <polygon points="0,0 3,0 0,1" fill="#0038A8" />
  
  <!-- Red triangle (bottom half) -->
  <polygon points="0,1 3,1 3,2" fill="#D21034" />

  <!-- White triangle -->
  <polygon points="0,0 0,2 1.5,1" fill="#FFFFFF" />

  <!-- Sun with 8 rays -->
  <circle cx="1.5" cy="1" r="0.25" fill="#FFD100" />
  <g fill="#FFD100">
    <polygon points="1.5,0.1 1.5,0.4 1.3,0.25" />
    <polygon points="1.5,0.1 1.7,0.25 1.5,0.4" />
    <polygon points="1.5,1.6 1.5,1.3 1.3,1.5" />
    <polygon points="1.5,1.6 1.7,1.5 1.5,1.3" />
    <polygon points="0.2,1 0.5,1 0.35,1.3" />
    <polygon points="0.2,1 0.35,1.7 0.5,1" />
    <polygon points="2.8,1 3.2,1 3.05,1.3" />
    <polygon points="2.8,1 3.05,1.7 3.2,1" />
  </g>

  <!-- Three stars -->
  <circle cx="0.2" cy="0.2" r="0.1" fill="#FFD100" />
  <circle cx="0.2" cy="1.8" r="0.1" fill="#FFD100" />
  <circle cx="2.8" cy="1.8" r="0.1" fill="#FFD100" />
</svg>
